<?xml version="1.0" encoding="UTF-8" standalone="no"?>
<!DOCTYPE svg PUBLIC "-//W3C//DTD SVG 1.1//EN"
 "http://www.w3.org/Graphics/SVG/1.1/DTD/svg11.dtd">
<!-- Generated by graphviz version 2.38.0 (20140413.2041)
 -->
<!-- Title: snakemake_dag Pages: 1 -->
<svg width="473pt" height="692pt"
 viewBox="0.00 0.00 473.48 692.00" xmlns="http://www.w3.org/2000/svg" xmlns:xlink="http://www.w3.org/1999/xlink">
<g id="graph0" class="graph" transform="scale(1 1) rotate(0) translate(4 688)">
<title>snakemake_dag</title>
<polygon fill="white" stroke="none" points="-4,4 -4,-688 469.48,-688 469.48,4 -4,4"/>
<!-- 0 -->
<g id="node1" class="node"><title>0</title>
<path fill="none" stroke="#d87556" stroke-width="2" stroke-dasharray="5,2" d="M146.498,-36C146.498,-36 116.498,-36 116.498,-36 110.498,-36 104.498,-30 104.498,-24 104.498,-24 104.498,-12 104.498,-12 104.498,-6 110.498,-0 116.498,-0 116.498,-0 146.498,-0 146.498,-0 152.498,-0 158.498,-6 158.498,-12 158.498,-12 158.498,-24 158.498,-24 158.498,-30 152.498,-36 146.498,-36"/>
<text text-anchor="middle" x="131.498" y="-15" font-family="sans" font-size="10.00">target</text>
</g>
<!-- 1 -->
<g id="node2" class="node"><title>1</title>
<path fill="none" stroke="#88d856" stroke-width="2" stroke-dasharray="5,2" d="M185.76,-180C185.76,-180 141.236,-180 141.236,-180 135.236,-180 129.236,-174 129.236,-168 129.236,-168 129.236,-156 129.236,-156 129.236,-150 135.236,-144 141.236,-144 141.236,-144 185.76,-144 185.76,-144 191.76,-144 197.76,-150 197.76,-156 197.76,-156 197.76,-168 197.76,-168 197.76,-174 191.76,-180 185.76,-180"/>
<text text-anchor="middle" x="163.498" y="-159" font-family="sans" font-size="10.00">split_per_chr</text>
</g>
<!-- 4 -->
<g id="node5" class="node"><title>4</title>
<path fill="none" stroke="#d89556" stroke-width="2" stroke-dasharray="5,2" d="M183.533,-108C183.533,-108 141.463,-108 141.463,-108 135.463,-108 129.463,-102 129.463,-96 129.463,-96 129.463,-84 129.463,-84 129.463,-78 135.463,-72 141.463,-72 141.463,-72 183.533,-72 183.533,-72 189.533,-72 195.533,-78 195.533,-84 195.533,-84 195.533,-96 195.533,-96 195.533,-102 189.533,-108 183.533,-108"/>
<text text-anchor="middle" x="162.498" y="-87" font-family="sans" font-size="10.00">per_chr_sort</text>
</g>
<!-- 1&#45;&gt;4 -->
<g id="edge10" class="edge"><title>1&#45;&gt;4</title>
<path fill="none" stroke="grey" stroke-width="2" d="M163.251,-143.697C163.141,-135.983 163.008,-126.712 162.885,-118.112"/>
<polygon fill="grey" stroke="grey" stroke-width="2" points="166.385,-118.053 162.742,-108.104 159.386,-118.153 166.385,-118.053"/>
</g>
<!-- 2 -->
<g id="node3" class="node"><title>2</title>
<path fill="none" stroke="#68d856" stroke-width="2" stroke-dasharray="5,2" d="M149.653,-540C149.653,-540 111.343,-540 111.343,-540 105.343,-540 99.343,-534 99.343,-528 99.343,-528 99.343,-516 99.343,-516 99.343,-510 105.343,-504 111.343,-504 111.343,-504 149.653,-504 149.653,-504 155.653,-504 161.653,-510 161.653,-516 161.653,-516 161.653,-528 161.653,-528 161.653,-534 155.653,-540 149.653,-540"/>
<text text-anchor="middle" x="130.498" y="-519" font-family="sans" font-size="10.00">bismark_pe</text>
</g>
<!-- 2&#45;&gt;0 -->
<g id="edge1" class="edge"><title>2&#45;&gt;0</title>
<path fill="none" stroke="grey" stroke-width="2" d="M99.1402,-513.979C74.0762,-506.714 40.0145,-492.834 20.498,-468 -4.49395,-436.198 1.49798,-419.447 1.49798,-379 1.49798,-379 1.49798,-379 1.49798,-161 1.49798,-105.148 56.8884,-61.7072 95.3572,-38.2722"/>
<polygon fill="grey" stroke="grey" stroke-width="2" points="97.4132,-41.123 104.246,-33.0256 93.8549,-35.0948 97.4132,-41.123"/>
</g>
<!-- 7 -->
<g id="node8" class="node"><title>7</title>
<path fill="none" stroke="#d8d356" stroke-width="2" stroke-dasharray="5,2" d="M85.7103,-468C85.7103,-468 41.2857,-468 41.2857,-468 35.2857,-468 29.2857,-462 29.2857,-456 29.2857,-456 29.2857,-444 29.2857,-444 29.2857,-438 35.2857,-432 41.2857,-432 41.2857,-432 85.7103,-432 85.7103,-432 91.7103,-432 97.7103,-438 97.7103,-444 97.7103,-444 97.7103,-456 97.7103,-456 97.7103,-462 91.7103,-468 85.7103,-468"/>
<text text-anchor="middle" x="63.498" y="-447" font-family="sans" font-size="10.00">sort_bismark</text>
</g>
<!-- 2&#45;&gt;7 -->
<g id="edge15" class="edge"><title>2&#45;&gt;7</title>
<path fill="none" stroke="grey" stroke-width="2" d="M113.936,-503.697C105.823,-495.22 95.9102,-484.864 87.027,-475.583"/>
<polygon fill="grey" stroke="grey" stroke-width="2" points="89.3123,-472.908 79.8693,-468.104 84.2554,-477.749 89.3123,-472.908"/>
</g>
<!-- 8 -->
<g id="node9" class="node"><title>8</title>
<path fill="none" stroke="#9fd856" stroke-width="2" stroke-dasharray="5,2" d="M269.462,-468C269.462,-468 127.534,-468 127.534,-468 121.534,-468 115.534,-462 115.534,-456 115.534,-456 115.534,-444 115.534,-444 115.534,-438 121.534,-432 127.534,-432 127.534,-432 269.462,-432 269.462,-432 275.462,-432 281.462,-438 281.462,-444 281.462,-444 281.462,-456 281.462,-456 281.462,-462 275.462,-468 269.462,-468"/>
<text text-anchor="middle" x="198.498" y="-447" font-family="sans" font-size="10.00">bismark_align_unmapped_pe_as_se2</text>
</g>
<!-- 2&#45;&gt;8 -->
<g id="edge16" class="edge"><title>2&#45;&gt;8</title>
<path fill="none" stroke="grey" stroke-width="2" d="M147.307,-503.697C155.624,-495.135 165.803,-484.656 174.888,-475.304"/>
<polygon fill="grey" stroke="grey" stroke-width="2" points="177.425,-477.716 181.882,-468.104 172.404,-472.838 177.425,-477.716"/>
</g>
<!-- 12 -->
<g id="node13" class="node"><title>12</title>
<path fill="none" stroke="#56d0d8" stroke-width="2" stroke-dasharray="5,2" d="M453.462,-468C453.462,-468 311.534,-468 311.534,-468 305.534,-468 299.534,-462 299.534,-456 299.534,-456 299.534,-444 299.534,-444 299.534,-438 305.534,-432 311.534,-432 311.534,-432 453.462,-432 453.462,-432 459.462,-432 465.462,-438 465.462,-444 465.462,-444 465.462,-456 465.462,-456 465.462,-462 459.462,-468 453.462,-468"/>
<text text-anchor="middle" x="382.498" y="-447" font-family="sans" font-size="10.00">bismark_align_unmapped_pe_as_se1</text>
</g>
<!-- 2&#45;&gt;12 -->
<g id="edge18" class="edge"><title>2&#45;&gt;12</title>
<path fill="none" stroke="grey" stroke-width="2" d="M161.904,-512.276C199.136,-501.934 262.336,-484.378 311.569,-470.702"/>
<polygon fill="grey" stroke="grey" stroke-width="2" points="312.52,-474.071 321.218,-468.022 310.646,-467.326 312.52,-474.071"/>
</g>
<!-- 3 -->
<g id="node4" class="node"><title>3</title>
<path fill="none" stroke="#5692d8" stroke-width="2" stroke-dasharray="5,2" d="M273.271,-108C273.271,-108 225.725,-108 225.725,-108 219.725,-108 213.725,-102 213.725,-96 213.725,-96 213.725,-84 213.725,-84 213.725,-78 219.725,-72 225.725,-72 225.725,-72 273.271,-72 273.271,-72 279.271,-72 285.271,-78 285.271,-84 285.271,-84 285.271,-96 285.271,-96 285.271,-102 279.271,-108 273.271,-108"/>
<text text-anchor="middle" x="249.498" y="-93" font-family="sans" font-size="10.00">fastqc_raw</text>
<text text-anchor="middle" x="249.498" y="-81" font-family="sans" font-size="10.00">sample: PE_2</text>
</g>
<!-- 3&#45;&gt;0 -->
<g id="edge2" class="edge"><title>3&#45;&gt;0</title>
<path fill="none" stroke="grey" stroke-width="2" d="M220.632,-71.8761C204.743,-62.4504 184.868,-50.6602 167.92,-40.6065"/>
<polygon fill="grey" stroke="grey" stroke-width="2" points="169.236,-37.3176 158.85,-35.2257 165.665,-43.338 169.236,-37.3176"/>
</g>
<!-- 4&#45;&gt;0 -->
<g id="edge4" class="edge"><title>4&#45;&gt;0</title>
<path fill="none" stroke="grey" stroke-width="2" d="M154.835,-71.6966C151.306,-63.7284 147.042,-54.0995 143.129,-45.2641"/>
<polygon fill="grey" stroke="grey" stroke-width="2" points="146.322,-43.8306 139.073,-36.1043 139.922,-46.6651 146.322,-43.8306"/>
</g>
<!-- 5 -->
<g id="node6" class="node"><title>5</title>
<path fill="none" stroke="#d8b456" stroke-width="2" stroke-dasharray="5,2" d="M203.932,-324C203.932,-324 157.064,-324 157.064,-324 151.064,-324 145.064,-318 145.064,-312 145.064,-312 145.064,-300 145.064,-300 145.064,-294 151.064,-288 157.064,-288 157.064,-288 203.932,-288 203.932,-288 209.932,-288 215.932,-294 215.932,-300 215.932,-300 215.932,-312 215.932,-312 215.932,-318 209.932,-324 203.932,-324"/>
<text text-anchor="middle" x="180.498" y="-303" font-family="sans" font-size="10.00">deduplication</text>
</g>
<!-- 10 -->
<g id="node11" class="node"><title>10</title>
<path fill="none" stroke="#5673d8" stroke-width="2" stroke-dasharray="5,2" d="M181.936,-252C181.936,-252 145.06,-252 145.06,-252 139.06,-252 133.06,-246 133.06,-240 133.06,-240 133.06,-228 133.06,-228 133.06,-222 139.06,-216 145.06,-216 145.06,-216 181.936,-216 181.936,-216 187.936,-216 193.936,-222 193.936,-228 193.936,-228 193.936,-240 193.936,-240 193.936,-246 187.936,-252 181.936,-252"/>
<text text-anchor="middle" x="163.498" y="-231" font-family="sans" font-size="10.00">sort_dedup</text>
</g>
<!-- 5&#45;&gt;10 -->
<g id="edge17" class="edge"><title>5&#45;&gt;10</title>
<path fill="none" stroke="grey" stroke-width="2" d="M176.296,-287.697C174.402,-279.898 172.121,-270.509 170.014,-261.829"/>
<polygon fill="grey" stroke="grey" stroke-width="2" points="173.413,-260.996 167.652,-252.104 166.611,-262.648 173.413,-260.996"/>
</g>
<!-- 6 -->
<g id="node7" class="node"><title>6</title>
<path fill="none" stroke="#d85656" stroke-width="2" stroke-dasharray="5,2" d="M221.69,-396C221.69,-396 157.306,-396 157.306,-396 151.306,-396 145.306,-390 145.306,-384 145.306,-384 145.306,-372 145.306,-372 145.306,-366 151.306,-360 157.306,-360 157.306,-360 221.69,-360 221.69,-360 227.69,-360 233.69,-366 233.69,-372 233.69,-372 233.69,-384 233.69,-384 233.69,-390 227.69,-396 221.69,-396"/>
<text text-anchor="middle" x="189.498" y="-375" font-family="sans" font-size="10.00">merge_se_and_pe</text>
</g>
<!-- 6&#45;&gt;5 -->
<g id="edge11" class="edge"><title>6&#45;&gt;5</title>
<path fill="none" stroke="grey" stroke-width="2" d="M187.273,-359.697C186.281,-351.983 185.09,-342.712 183.984,-334.112"/>
<polygon fill="grey" stroke="grey" stroke-width="2" points="187.444,-333.576 182.697,-324.104 180.501,-334.469 187.444,-333.576"/>
</g>
<!-- 7&#45;&gt;0 -->
<g id="edge5" class="edge"><title>7&#45;&gt;0</title>
<path fill="none" stroke="grey" stroke-width="2" d="M63.498,-431.951C63.498,-405.292 63.498,-352.115 63.498,-307 63.498,-307 63.498,-307 63.498,-161 63.498,-116.604 90.8707,-71.3824 110.882,-44.2539"/>
<polygon fill="grey" stroke="grey" stroke-width="2" points="113.811,-46.1846 117.077,-36.1057 108.239,-41.9482 113.811,-46.1846"/>
</g>
<!-- 7&#45;&gt;6 -->
<g id="edge13" class="edge"><title>7&#45;&gt;6</title>
<path fill="none" stroke="grey" stroke-width="2" d="M94.3211,-431.876C110.948,-422.639 131.663,-411.131 149.517,-401.212"/>
<polygon fill="grey" stroke="grey" stroke-width="2" points="151.515,-404.106 158.556,-396.19 148.115,-397.987 151.515,-404.106"/>
</g>
<!-- 8&#45;&gt;6 -->
<g id="edge14" class="edge"><title>8&#45;&gt;6</title>
<path fill="none" stroke="grey" stroke-width="2" d="M196.273,-431.697C195.281,-423.983 194.09,-414.712 192.984,-406.112"/>
<polygon fill="grey" stroke="grey" stroke-width="2" points="196.444,-405.576 191.697,-396.104 189.501,-406.469 196.444,-405.576"/>
</g>
<!-- 9 -->
<g id="node10" class="node"><title>9</title>
<path fill="none" stroke="#bed856" stroke-width="2" stroke-dasharray="5,2" d="M155.199,-684C155.199,-684 105.797,-684 105.797,-684 99.7967,-684 93.7967,-678 93.7967,-672 93.7967,-672 93.7967,-660 93.7967,-660 93.7967,-654 99.7967,-648 105.797,-648 105.797,-648 155.199,-648 155.199,-648 161.199,-648 167.199,-654 167.199,-660 167.199,-660 167.199,-672 167.199,-672 167.199,-678 161.199,-684 155.199,-684"/>
<text text-anchor="middle" x="130.498" y="-669" font-family="sans" font-size="10.00">trim_reads_pe</text>
<text text-anchor="middle" x="130.498" y="-657" font-family="sans" font-size="10.00">sample: PE</text>
</g>
<!-- 9&#45;&gt;2 -->
<g id="edge9" class="edge"><title>9&#45;&gt;2</title>
<path fill="none" stroke="grey" stroke-width="2" d="M119.873,-647.556C114.4,-637.543 108.3,-624.509 105.498,-612 102,-596.387 102,-591.613 105.498,-576 107.512,-567.009 111.23,-557.747 115.194,-549.53"/>
<polygon fill="grey" stroke="grey" stroke-width="2" points="118.406,-550.937 119.873,-540.444 112.183,-547.732 118.406,-550.937"/>
</g>
<!-- 13 -->
<g id="node14" class="node"><title>13</title>
<path fill="none" stroke="#56d882" stroke-width="2" stroke-dasharray="5,2" d="M222.351,-612C222.351,-612 126.645,-612 126.645,-612 120.645,-612 114.645,-606 114.645,-600 114.645,-600 114.645,-588 114.645,-588 114.645,-582 120.645,-576 126.645,-576 126.645,-576 222.351,-576 222.351,-576 228.351,-576 234.351,-582 234.351,-588 234.351,-588 234.351,-600 234.351,-600 234.351,-606 228.351,-612 222.351,-612"/>
<text text-anchor="middle" x="174.498" y="-591" font-family="sans" font-size="10.00">fastqc_after_trimming_pe</text>
</g>
<!-- 9&#45;&gt;13 -->
<g id="edge19" class="edge"><title>9&#45;&gt;13</title>
<path fill="none" stroke="grey" stroke-width="2" d="M141.374,-647.697C146.49,-639.559 152.693,-629.689 158.343,-620.701"/>
<polygon fill="grey" stroke="grey" stroke-width="2" points="161.388,-622.433 163.747,-612.104 155.462,-618.708 161.388,-622.433"/>
</g>
<!-- 10&#45;&gt;0 -->
<g id="edge6" class="edge"><title>10&#45;&gt;0</title>
<path fill="none" stroke="grey" stroke-width="2" d="M144.459,-215.837C135.322,-206.3 125.33,-193.624 120.498,-180 104.528,-134.968 114.718,-78.4831 123.3,-45.7902"/>
<polygon fill="grey" stroke="grey" stroke-width="2" points="126.7,-46.6277 125.995,-36.0563 119.954,-44.7599 126.7,-46.6277"/>
</g>
<!-- 10&#45;&gt;1 -->
<g id="edge7" class="edge"><title>10&#45;&gt;1</title>
<path fill="none" stroke="grey" stroke-width="2" d="M163.498,-215.697C163.498,-207.983 163.498,-198.712 163.498,-190.112"/>
<polygon fill="grey" stroke="grey" stroke-width="2" points="166.998,-190.104 163.498,-180.104 159.998,-190.104 166.998,-190.104"/>
</g>
<!-- 11 -->
<g id="node12" class="node"><title>11</title>
<path fill="none" stroke="#5692d8" stroke-width="2" stroke-dasharray="5,2" d="M362.271,-108C362.271,-108 314.725,-108 314.725,-108 308.725,-108 302.725,-102 302.725,-96 302.725,-96 302.725,-84 302.725,-84 302.725,-78 308.725,-72 314.725,-72 314.725,-72 362.271,-72 362.271,-72 368.271,-72 374.271,-78 374.271,-84 374.271,-84 374.271,-96 374.271,-96 374.271,-102 368.271,-108 362.271,-108"/>
<text text-anchor="middle" x="338.498" y="-93" font-family="sans" font-size="10.00">fastqc_raw</text>
<text text-anchor="middle" x="338.498" y="-81" font-family="sans" font-size="10.00">sample: PE_1</text>
</g>
<!-- 11&#45;&gt;0 -->
<g id="edge3" class="edge"><title>11&#45;&gt;0</title>
<path fill="none" stroke="grey" stroke-width="2" d="M302.539,-74.9238C299.824,-73.9173 297.122,-72.9326 294.498,-72 251.556,-56.7356 201.654,-40.7656 168.49,-30.3978"/>
<polygon fill="grey" stroke="grey" stroke-width="2" points="169.35,-26.9998 158.761,-27.3671 167.268,-33.683 169.35,-26.9998"/>
</g>
<!-- 12&#45;&gt;6 -->
<g id="edge12" class="edge"><title>12&#45;&gt;6</title>
<path fill="none" stroke="grey" stroke-width="2" d="M335.285,-431.876C307.512,-421.803 272.294,-409.03 243.431,-398.561"/>
<polygon fill="grey" stroke="grey" stroke-width="2" points="244.5,-395.226 233.906,-395.106 242.113,-401.806 244.5,-395.226"/>
</g>
<!-- 13&#45;&gt;2 -->
<g id="edge8" class="edge"><title>13&#45;&gt;2</title>
<path fill="none" stroke="grey" stroke-width="2" d="M163.622,-575.697C158.506,-567.559 152.303,-557.689 146.653,-548.701"/>
<polygon fill="grey" stroke="grey" stroke-width="2" points="149.534,-546.708 141.249,-540.104 143.608,-550.433 149.534,-546.708"/>
</g>
</g>
</svg>
