<?xml version="1.0" encoding="UTF-8" standalone="no"?>
<!DOCTYPE svg PUBLIC "-//W3C//DTD SVG 1.1//EN"
 "http://www.w3.org/Graphics/SVG/1.1/DTD/svg11.dtd">
<!-- Generated by graphviz version 2.40.1 (20161225.0304)
 -->
<!-- Title: snakemake_dag Pages: 1 -->
<svg width="1248pt" height="769pt"
 viewBox="0.00 0.00 1248.00 769.00" xmlns="http://www.w3.org/2000/svg" xmlns:xlink="http://www.w3.org/1999/xlink">
<g id="graph0" class="graph" transform="scale(1 1) rotate(0) translate(4 765)">
<title>snakemake_dag</title>
<polygon fill="#ffffff" stroke="transparent" points="-4,4 -4,-765 1244,-765 1244,4 -4,4"/>
<!-- 0 -->
<g id="node1" class="node">
<title>0</title>
<path fill="none" stroke="#d8a456" stroke-width="2" d="M621,-36C621,-36 591,-36 591,-36 585,-36 579,-30 579,-24 579,-24 579,-12 579,-12 579,-6 585,0 591,0 591,0 621,0 621,0 627,0 633,-6 633,-12 633,-12 633,-24 633,-24 633,-30 627,-36 621,-36"/>
<text text-anchor="middle" x="606" y="-15.5" font-family="sans" font-size="10.00" fill="#000000">target</text>
</g>
<!-- 1 -->
<g id="node2" class="node">
<title>1</title>
<path fill="none" stroke="#d89556" stroke-width="2" d="M180,-113C180,-113 12,-113 12,-113 6,-113 0,-107 0,-101 0,-101 0,-84 0,-84 0,-78 6,-72 12,-72 12,-72 180,-72 180,-72 186,-72 192,-78 192,-84 192,-84 192,-101 192,-101 192,-107 186,-113 180,-113"/>
<text text-anchor="middle" x="96" y="-101" font-family="sans" font-size="10.00" fill="#000000">fastqc_raw_pe</text>
<text text-anchor="middle" x="96" y="-90" font-family="sans" font-size="10.00" fill="#000000">ext: 1</text>
<text text-anchor="middle" x="96" y="-79" font-family="sans" font-size="10.00" fill="#000000">sample: S0144&#45;FLOWCELL&#45;1&#45;LANE&#45;6</text>
</g>
<!-- 1&#45;&gt;0 -->
<g id="edge1" class="edge">
<title>1&#45;&gt;0</title>
<path fill="none" stroke="#c0c0c0" stroke-width="2" d="M192.0886,-73.4993C195.0914,-72.9826 198.0675,-72.4813 201,-72 335.8251,-49.8708 497.0354,-30.4722 568.6033,-22.2225"/>
<polygon fill="#c0c0c0" stroke="#c0c0c0" stroke-width="2" points="569.3647,-25.6582 578.9007,-21.0412 568.5669,-18.7038 569.3647,-25.6582"/>
</g>
<!-- 2 -->
<g id="node3" class="node">
<title>2</title>
<path fill="none" stroke="#d89556" stroke-width="2" d="M390,-113C390,-113 222,-113 222,-113 216,-113 210,-107 210,-101 210,-101 210,-84 210,-84 210,-78 216,-72 222,-72 222,-72 390,-72 390,-72 396,-72 402,-78 402,-84 402,-84 402,-101 402,-101 402,-107 396,-113 390,-113"/>
<text text-anchor="middle" x="306" y="-101" font-family="sans" font-size="10.00" fill="#000000">fastqc_raw_pe</text>
<text text-anchor="middle" x="306" y="-90" font-family="sans" font-size="10.00" fill="#000000">ext: 2</text>
<text text-anchor="middle" x="306" y="-79" font-family="sans" font-size="10.00" fill="#000000">sample: S0144&#45;FLOWCELL&#45;1&#45;LANE&#45;6</text>
</g>
<!-- 2&#45;&gt;0 -->
<g id="edge2" class="edge">
<title>2&#45;&gt;0</title>
<path fill="none" stroke="#c0c0c0" stroke-width="2" d="M388.7705,-71.9453C447.821,-57.2811 524.3982,-38.2645 569.0782,-27.1689"/>
<polygon fill="#c0c0c0" stroke="#c0c0c0" stroke-width="2" points="570.0536,-30.5331 578.9153,-24.726 568.3665,-23.7394 570.0536,-30.5331"/>
</g>
<!-- 3 -->
<g id="node4" class="node">
<title>3</title>
<path fill="none" stroke="#d6d856" stroke-width="2" d="M427.5,-617C427.5,-617 308.5,-617 308.5,-617 302.5,-617 296.5,-611 296.5,-605 296.5,-605 296.5,-593 296.5,-593 296.5,-587 302.5,-581 308.5,-581 308.5,-581 427.5,-581 427.5,-581 433.5,-581 439.5,-587 439.5,-593 439.5,-593 439.5,-605 439.5,-605 439.5,-611 433.5,-617 427.5,-617"/>
<text text-anchor="middle" x="368" y="-596.5" font-family="sans" font-size="10.00" fill="#000000">fastqc_after_trimming_pe</text>
</g>
<!-- 3&#45;&gt;0 -->
<g id="edge3" class="edge">
<title>3&#45;&gt;0</title>
<path fill="none" stroke="#c0c0c0" stroke-width="2" d="M381.4531,-580.9776C399.6878,-554.7117 430,-503.7216 430,-455 430,-455 430,-455 430,-167 430,-123.4512 424.6856,-104.2049 454,-72 483.555,-39.5308 533.9196,-26.578 568.5199,-21.415"/>
<polygon fill="#c0c0c0" stroke="#c0c0c0" stroke-width="2" points="569.2646,-24.8466 578.7114,-20.0498 568.3352,-17.9086 569.2646,-24.8466"/>
</g>
<!-- 4 -->
<g id="node5" class="node">
<title>4</title>
<path fill="none" stroke="#56d8b9" stroke-width="2" d="M540,-689C540,-689 408,-689 408,-689 402,-689 396,-683 396,-677 396,-677 396,-665 396,-665 396,-659 402,-653 408,-653 408,-653 540,-653 540,-653 546,-653 552,-659 552,-665 552,-665 552,-677 552,-677 552,-683 546,-689 540,-689"/>
<text text-anchor="middle" x="474" y="-668.5" font-family="sans" font-size="10.00" fill="#000000">bwameth_align_pe_trimmed</text>
</g>
<!-- 4&#45;&gt;0 -->
<g id="edge4" class="edge">
<title>4&#45;&gt;0</title>
<path fill="none" stroke="#c0c0c0" stroke-width="2" d="M472.7568,-652.8247C470.9994,-625.5213 468,-572.2893 468,-527 468,-527 468,-527 468,-167 468,-119.4922 484.5885,-106.7344 517,-72 531.669,-56.2797 551.925,-43.5084 569.4071,-34.3401"/>
<polygon fill="#c0c0c0" stroke="#c0c0c0" stroke-width="2" points="571.4225,-37.2441 578.781,-29.6215 568.2751,-30.9916 571.4225,-37.2441"/>
</g>
<!-- 5 -->
<g id="node6" class="node">
<title>5</title>
<path fill="none" stroke="#56d8a9" stroke-width="2" d="M698,-617C698,-617 576,-617 576,-617 570,-617 564,-611 564,-605 564,-605 564,-593 564,-593 564,-587 570,-581 576,-581 576,-581 698,-581 698,-581 704,-581 710,-587 710,-593 710,-593 710,-605 710,-605 710,-611 704,-617 698,-617"/>
<text text-anchor="middle" x="637" y="-596.5" font-family="sans" font-size="10.00" fill="#000000">sort_index_bam_bwameth</text>
</g>
<!-- 4&#45;&gt;5 -->
<g id="edge17" class="edge">
<title>4&#45;&gt;5</title>
<path fill="none" stroke="#c0c0c0" stroke-width="2" d="M515.1318,-652.8314C536.9321,-643.2018 563.8878,-631.295 586.9004,-621.1299"/>
<polygon fill="#c0c0c0" stroke="#c0c0c0" stroke-width="2" points="588.4308,-624.2802 596.164,-617.038 585.6024,-617.877 588.4308,-624.2802"/>
</g>
<!-- 5&#45;&gt;0 -->
<g id="edge5" class="edge">
<title>5&#45;&gt;0</title>
<path fill="none" stroke="#c0c0c0" stroke-width="2" d="M602.9233,-580.8248C564.1086,-557.3662 506,-512.6241 506,-455 506,-455 506,-455 506,-167 506,-116.381 546.2831,-69.9949 575.7147,-42.8595"/>
<polygon fill="#c0c0c0" stroke="#c0c0c0" stroke-width="2" points="578.1955,-45.3362 583.3085,-36.0568 573.5247,-40.1223 578.1955,-45.3362"/>
</g>
<!-- 6 -->
<g id="node7" class="node">
<title>6</title>
<path fill="none" stroke="#56c9d8" stroke-width="2" d="M626,-473C626,-473 546,-473 546,-473 540,-473 534,-467 534,-461 534,-461 534,-449 534,-449 534,-443 540,-437 546,-437 546,-437 626,-437 626,-437 632,-437 638,-443 638,-449 638,-449 638,-461 638,-461 638,-467 632,-473 626,-473"/>
<text text-anchor="middle" x="586" y="-452.5" font-family="sans" font-size="10.00" fill="#000000">flagstat_bwameth</text>
</g>
<!-- 5&#45;&gt;6 -->
<g id="edge18" class="edge">
<title>5&#45;&gt;6</title>
<path fill="none" stroke="#c0c0c0" stroke-width="2" d="M630.5408,-580.7623C621.7654,-555.9846 606.0003,-511.4714 595.7728,-482.5939"/>
<polygon fill="#c0c0c0" stroke="#c0c0c0" stroke-width="2" points="599.0445,-481.3474 592.4067,-473.0896 592.4461,-483.6844 599.0445,-481.3474"/>
</g>
<!-- 7 -->
<g id="node8" class="node">
<title>7</title>
<path fill="none" stroke="#d8cb56" stroke-width="2" d="M655,-401C655,-401 593,-401 593,-401 587,-401 581,-395 581,-389 581,-389 581,-377 581,-377 581,-371 587,-365 593,-365 593,-365 655,-365 655,-365 661,-365 667,-371 667,-377 667,-377 667,-389 667,-389 667,-395 661,-401 655,-401"/>
<text text-anchor="middle" x="624" y="-380.5" font-family="sans" font-size="10.00" fill="#000000">stat_bwameth</text>
</g>
<!-- 5&#45;&gt;7 -->
<g id="edge19" class="edge">
<title>5&#45;&gt;7</title>
<path fill="none" stroke="#c0c0c0" stroke-width="2" d="M641.1851,-580.8055C647.4528,-550.6026 657.4808,-488.3535 647,-437 645.1839,-428.1016 641.8446,-418.8541 638.2629,-410.5789"/>
<polygon fill="#c0c0c0" stroke="#c0c0c0" stroke-width="2" points="641.3911,-409.0044 634.0235,-401.3906 635.0349,-411.937 641.3911,-409.0044"/>
</g>
<!-- 8 -->
<g id="node9" class="node">
<title>8</title>
<path fill="none" stroke="#97d856" stroke-width="2" d="M705.5,-185C705.5,-185 622.5,-185 622.5,-185 616.5,-185 610.5,-179 610.5,-173 610.5,-173 610.5,-161 610.5,-161 610.5,-155 616.5,-149 622.5,-149 622.5,-149 705.5,-149 705.5,-149 711.5,-149 717.5,-155 717.5,-161 717.5,-161 717.5,-173 717.5,-173 717.5,-179 711.5,-185 705.5,-185"/>
<text text-anchor="middle" x="664" y="-164.5" font-family="sans" font-size="10.00" fill="#000000">idxstats_bwameth</text>
</g>
<!-- 5&#45;&gt;8 -->
<g id="edge20" class="edge">
<title>5&#45;&gt;8</title>
<path fill="none" stroke="#c0c0c0" stroke-width="2" d="M651.8695,-580.7109C671.6082,-554.5269 704,-504.081 704,-455 704,-455 704,-455 704,-311 704,-269.2219 688.176,-223.0316 676.4336,-194.5067"/>
<polygon fill="#c0c0c0" stroke="#c0c0c0" stroke-width="2" points="679.6092,-193.0301 672.483,-185.19 673.1646,-195.7629 679.6092,-193.0301"/>
</g>
<!-- 22 -->
<g id="node23" class="node">
<title>22</title>
<path fill="none" stroke="#56d8d8" stroke-width="2" d="M885.5,-545C885.5,-545 778.5,-545 778.5,-545 772.5,-545 766.5,-539 766.5,-533 766.5,-533 766.5,-521 766.5,-521 766.5,-515 772.5,-509 778.5,-509 778.5,-509 885.5,-509 885.5,-509 891.5,-509 897.5,-515 897.5,-521 897.5,-521 897.5,-533 897.5,-533 897.5,-539 891.5,-545 885.5,-545"/>
<text text-anchor="middle" x="832" y="-530" font-family="sans" font-size="10.00" fill="#000000">merge_lanes_bwameth</text>
<text text-anchor="middle" x="832" y="-519" font-family="sans" font-size="10.00" fill="#000000">sample: S0144</text>
</g>
<!-- 5&#45;&gt;22 -->
<g id="edge33" class="edge">
<title>5&#45;&gt;22</title>
<path fill="none" stroke="#c0c0c0" stroke-width="2" d="M685.955,-580.9243C712.4968,-571.1243 745.4823,-558.945 773.3858,-548.6422"/>
<polygon fill="#c0c0c0" stroke="#c0c0c0" stroke-width="2" points="774.8562,-551.8303 783.0248,-545.0831 772.4315,-545.2636 774.8562,-551.8303"/>
</g>
<!-- 6&#45;&gt;0 -->
<g id="edge6" class="edge">
<title>6&#45;&gt;0</title>
<path fill="none" stroke="#c0c0c0" stroke-width="2" d="M577.0929,-436.8553C564.7642,-410.0234 544,-357.875 544,-311 544,-311 544,-311 544,-167 544,-121.4924 568.9575,-73.7519 587.2034,-44.9305"/>
<polygon fill="#c0c0c0" stroke="#c0c0c0" stroke-width="2" points="590.3234,-46.5533 592.8514,-36.2644 584.459,-42.7311 590.3234,-46.5533"/>
</g>
<!-- 7&#45;&gt;0 -->
<g id="edge7" class="edge">
<title>7&#45;&gt;0</title>
<path fill="none" stroke="#c0c0c0" stroke-width="2" d="M615.0929,-364.8553C602.7642,-338.0234 582,-285.875 582,-239 582,-239 582,-239 582,-167 582,-124.529 591.622,-76.1051 598.6811,-46.2941"/>
<polygon fill="#c0c0c0" stroke="#c0c0c0" stroke-width="2" points="602.174,-46.7433 601.1432,-36.1987 595.3734,-45.0846 602.174,-46.7433"/>
</g>
<!-- 8&#45;&gt;0 -->
<g id="edge8" class="edge">
<title>8&#45;&gt;0</title>
<path fill="none" stroke="#c0c0c0" stroke-width="2" d="M656.8881,-148.7297C646.8869,-123.037 628.5822,-76.0128 616.8684,-45.9206"/>
<polygon fill="#c0c0c0" stroke="#c0c0c0" stroke-width="2" points="620.0593,-44.469 613.1701,-36.4198 613.536,-47.0083 620.0593,-44.469"/>
</g>
<!-- 9 -->
<g id="node10" class="node">
<title>9</title>
<path fill="none" stroke="#56b9d8" stroke-width="2" d="M933,-257C933,-257 801,-257 801,-257 795,-257 789,-251 789,-245 789,-245 789,-233 789,-233 789,-227 795,-221 801,-221 801,-221 933,-221 933,-221 939,-221 945,-227 945,-233 945,-233 945,-245 945,-245 945,-251 939,-257 933,-257"/>
<text text-anchor="middle" x="867" y="-236.5" font-family="sans" font-size="10.00" fill="#000000">tabix_methylDackerfile_CpG</text>
</g>
<!-- 9&#45;&gt;0 -->
<g id="edge9" class="edge">
<title>9&#45;&gt;0</title>
<path fill="none" stroke="#c0c0c0" stroke-width="2" d="M825.4705,-220.8084C806.2051,-211.4402 783.5254,-199.0369 765,-185 735.3859,-162.5612 665.1212,-84.86 628.7272,-43.8353"/>
<polygon fill="#c0c0c0" stroke="#c0c0c0" stroke-width="2" points="631.1707,-41.3151 621.9221,-36.1466 625.929,-45.9545 631.1707,-41.3151"/>
</g>
<!-- 19 -->
<g id="node20" class="node">
<title>19</title>
<path fill="none" stroke="#569ad8" stroke-width="2" d="M948,-185C948,-185 786,-185 786,-185 780,-185 774,-179 774,-173 774,-173 774,-161 774,-161 774,-155 780,-149 786,-149 786,-149 948,-149 948,-149 954,-149 960,-155 960,-161 960,-161 960,-173 960,-173 960,-179 954,-185 948,-185"/>
<text text-anchor="middle" x="867" y="-164.5" font-family="sans" font-size="10.00" fill="#000000">filter_and_chromcanon_meth_calls</text>
</g>
<!-- 9&#45;&gt;19 -->
<g id="edge30" class="edge">
<title>9&#45;&gt;19</title>
<path fill="none" stroke="#c0c0c0" stroke-width="2" d="M867,-220.8314C867,-213.131 867,-203.9743 867,-195.4166"/>
<polygon fill="#c0c0c0" stroke="#c0c0c0" stroke-width="2" points="870.5001,-195.4132 867,-185.4133 863.5001,-195.4133 870.5001,-195.4132"/>
</g>
<!-- 10 -->
<g id="node11" class="node">
<title>10</title>
<path fill="none" stroke="#59d856" stroke-width="2" d="M1124,-185C1124,-185 990,-185 990,-185 984,-185 978,-179 978,-173 978,-173 978,-161 978,-161 978,-155 984,-149 990,-149 990,-149 1124,-149 1124,-149 1130,-149 1136,-155 1136,-161 1136,-161 1136,-173 1136,-173 1136,-179 1130,-185 1124,-185"/>
<text text-anchor="middle" x="1057" y="-164.5" font-family="sans" font-size="10.00" fill="#000000">tabix_methylDackerfile_CHG</text>
</g>
<!-- 10&#45;&gt;0 -->
<g id="edge10" class="edge">
<title>10&#45;&gt;0</title>
<path fill="none" stroke="#c0c0c0" stroke-width="2" d="M1057.8147,-148.8935C1057.717,-127.1539 1053.9294,-91.225 1032,-72 1002.9619,-46.5429 741.8613,-26.9197 643.3723,-20.3634"/>
<polygon fill="#c0c0c0" stroke="#c0c0c0" stroke-width="2" points="643.4812,-16.8631 633.273,-19.6992 643.0217,-23.848 643.4812,-16.8631"/>
</g>
<!-- 11 -->
<g id="node12" class="node">
<title>11</title>
<path fill="none" stroke="#56d88a" stroke-width="2" d="M1228,-257C1228,-257 1094,-257 1094,-257 1088,-257 1082,-251 1082,-245 1082,-245 1082,-233 1082,-233 1082,-227 1088,-221 1094,-221 1094,-221 1228,-221 1228,-221 1234,-221 1240,-227 1240,-233 1240,-233 1240,-245 1240,-245 1240,-251 1234,-257 1228,-257"/>
<text text-anchor="middle" x="1161" y="-236.5" font-family="sans" font-size="10.00" fill="#000000">tabix_methylDackerfile_CHH</text>
</g>
<!-- 11&#45;&gt;0 -->
<g id="edge11" class="edge">
<title>11&#45;&gt;0</title>
<path fill="none" stroke="#c0c0c0" stroke-width="2" d="M1161.2345,-220.9156C1160.7265,-201.8536 1157.7174,-171.5261 1145,-149 1119.4505,-103.7445 1104.4741,-93.1436 1057,-72 983.0415,-39.061 737.5725,-24.2212 643.3103,-19.6375"/>
<polygon fill="#c0c0c0" stroke="#c0c0c0" stroke-width="2" points="643.2589,-16.1312 633.1041,-19.1528 642.9268,-23.1233 643.2589,-16.1312"/>
</g>
<!-- 12 -->
<g id="node13" class="node">
<title>12</title>
<path fill="none" stroke="#56d87b" stroke-width="2" d="M794,-110.5C794,-110.5 718,-110.5 718,-110.5 712,-110.5 706,-104.5 706,-98.5 706,-98.5 706,-86.5 706,-86.5 706,-80.5 712,-74.5 718,-74.5 718,-74.5 794,-74.5 794,-74.5 800,-74.5 806,-80.5 806,-86.5 806,-86.5 806,-98.5 806,-98.5 806,-104.5 800,-110.5 794,-110.5"/>
<text text-anchor="middle" x="756" y="-90" font-family="sans" font-size="10.00" fill="#000000">unite_meth_calls</text>
</g>
<!-- 12&#45;&gt;0 -->
<g id="edge12" class="edge">
<title>12&#45;&gt;0</title>
<path fill="none" stroke="#c0c0c0" stroke-width="2" d="M719.6892,-74.4656C696.1136,-62.7564 665.5144,-47.5588 642.0007,-35.8804"/>
<polygon fill="#c0c0c0" stroke="#c0c0c0" stroke-width="2" points="643.5575,-32.7457 633.0445,-31.4321 640.4437,-39.015 643.5575,-32.7457"/>
</g>
<!-- 13 -->
<g id="node14" class="node">
<title>13</title>
<path fill="none" stroke="#d8b456" stroke-width="2" d="M898,-110.5C898,-110.5 836,-110.5 836,-110.5 830,-110.5 824,-104.5 824,-98.5 824,-98.5 824,-86.5 824,-86.5 824,-80.5 830,-74.5 836,-74.5 836,-74.5 898,-74.5 898,-74.5 904,-74.5 910,-80.5 910,-86.5 910,-86.5 910,-98.5 910,-98.5 910,-104.5 904,-110.5 898,-110.5"/>
<text text-anchor="middle" x="867" y="-90" font-family="sans" font-size="10.00" fill="#000000">export_bigwig</text>
</g>
<!-- 13&#45;&gt;0 -->
<g id="edge13" class="edge">
<title>13&#45;&gt;0</title>
<path fill="none" stroke="#c0c0c0" stroke-width="2" d="M823.733,-74.9834C820.7916,-73.9348 817.861,-72.9297 815,-72 755.567,-52.6875 684.8845,-35.6228 642.8241,-26.0717"/>
<polygon fill="#c0c0c0" stroke="#c0c0c0" stroke-width="2" points="643.5509,-22.6478 633.0263,-23.8653 642.0131,-29.4768 643.5509,-22.6478"/>
</g>
<!-- 14 -->
<g id="node15" class="node">
<title>14</title>
<path fill="none" stroke="#d86656" stroke-width="2" d="M1011.5,-110.5C1011.5,-110.5 940.5,-110.5 940.5,-110.5 934.5,-110.5 928.5,-104.5 928.5,-98.5 928.5,-98.5 928.5,-86.5 928.5,-86.5 928.5,-80.5 934.5,-74.5 940.5,-74.5 940.5,-74.5 1011.5,-74.5 1011.5,-74.5 1017.5,-74.5 1023.5,-80.5 1023.5,-86.5 1023.5,-86.5 1023.5,-98.5 1023.5,-98.5 1023.5,-104.5 1017.5,-110.5 1011.5,-110.5"/>
<text text-anchor="middle" x="976" y="-90" font-family="sans" font-size="10.00" fill="#000000">meth_segments</text>
</g>
<!-- 14&#45;&gt;0 -->
<g id="edge14" class="edge">
<title>14&#45;&gt;0</title>
<path fill="none" stroke="#c0c0c0" stroke-width="2" d="M928.2971,-74.661C925.1687,-73.703 922.0505,-72.8051 919,-72 867.3986,-58.3809 714.888,-34.4851 643.565,-23.6392"/>
<polygon fill="#c0c0c0" stroke="#c0c0c0" stroke-width="2" points="643.6591,-20.1135 633.2475,-22.0752 642.61,-27.0345 643.6591,-20.1135"/>
</g>
<!-- 15 -->
<g id="node16" class="node">
<title>15</title>
<path fill="none" stroke="#567bd8" stroke-width="2" d="M453.5,-761C453.5,-761 388.5,-761 388.5,-761 382.5,-761 376.5,-755 376.5,-749 376.5,-749 376.5,-737 376.5,-737 376.5,-731 382.5,-725 388.5,-725 388.5,-725 453.5,-725 453.5,-725 459.5,-725 465.5,-731 465.5,-737 465.5,-737 465.5,-749 465.5,-749 465.5,-755 459.5,-761 453.5,-761"/>
<text text-anchor="middle" x="421" y="-746" font-family="sans" font-size="10.00" fill="#000000">trim_reads_pe</text>
<text text-anchor="middle" x="421" y="-735" font-family="sans" font-size="10.00" fill="#000000">sample: S0144</text>
</g>
<!-- 15&#45;&gt;3 -->
<g id="edge15" class="edge">
<title>15&#45;&gt;3</title>
<path fill="none" stroke="#c0c0c0" stroke-width="2" d="M407.3183,-724.8898C400.2973,-714.7991 392.159,-701.7318 387,-689 378.9285,-669.0806 374.0924,-645.2306 371.3207,-627.0883"/>
<polygon fill="#c0c0c0" stroke="#c0c0c0" stroke-width="2" points="374.7799,-626.5525 369.9185,-617.1388 367.8484,-627.5294 374.7799,-626.5525"/>
</g>
<!-- 15&#45;&gt;4 -->
<g id="edge16" class="edge">
<title>15&#45;&gt;4</title>
<path fill="none" stroke="#c0c0c0" stroke-width="2" d="M434.3741,-724.8314C440.4162,-716.6232 447.6763,-706.7606 454.3221,-697.7323"/>
<polygon fill="#c0c0c0" stroke="#c0c0c0" stroke-width="2" points="457.3363,-699.5415 460.4458,-689.4133 451.6989,-695.3918 457.3363,-699.5415"/>
</g>
<!-- 16 -->
<g id="node17" class="node">
<title>16</title>
<path fill="none" stroke="#88d856" stroke-width="2" d="M914.5,-329C914.5,-329 827.5,-329 827.5,-329 821.5,-329 815.5,-323 815.5,-317 815.5,-317 815.5,-305 815.5,-305 815.5,-299 821.5,-293 827.5,-293 827.5,-293 914.5,-293 914.5,-293 920.5,-293 926.5,-299 926.5,-305 926.5,-305 926.5,-317 926.5,-317 926.5,-323 920.5,-329 914.5,-329"/>
<text text-anchor="middle" x="871" y="-308.5" font-family="sans" font-size="10.00" fill="#000000">methylDacker_CpG</text>
</g>
<!-- 16&#45;&gt;9 -->
<g id="edge21" class="edge">
<title>16&#45;&gt;9</title>
<path fill="none" stroke="#c0c0c0" stroke-width="2" d="M869.9906,-292.8314C869.5628,-285.131 869.0541,-275.9743 868.5787,-267.4166"/>
<polygon fill="#c0c0c0" stroke="#c0c0c0" stroke-width="2" points="872.0724,-267.2037 868.023,-257.4133 865.0831,-267.592 872.0724,-267.2037"/>
</g>
<!-- 17 -->
<g id="node18" class="node">
<title>17</title>
<path fill="none" stroke="#56a9d8" stroke-width="2" d="M1063.5,-329C1063.5,-329 974.5,-329 974.5,-329 968.5,-329 962.5,-323 962.5,-317 962.5,-317 962.5,-305 962.5,-305 962.5,-299 968.5,-293 974.5,-293 974.5,-293 1063.5,-293 1063.5,-293 1069.5,-293 1075.5,-299 1075.5,-305 1075.5,-305 1075.5,-317 1075.5,-317 1075.5,-323 1069.5,-329 1063.5,-329"/>
<text text-anchor="middle" x="1019" y="-308.5" font-family="sans" font-size="10.00" fill="#000000">methylDacker_CHG</text>
</g>
<!-- 17&#45;&gt;10 -->
<g id="edge22" class="edge">
<title>17&#45;&gt;10</title>
<path fill="none" stroke="#c0c0c0" stroke-width="2" d="M1023.8127,-292.7623C1030.3227,-268.0928 1041.9953,-223.8598 1049.6182,-194.9731"/>
<polygon fill="#c0c0c0" stroke="#c0c0c0" stroke-width="2" points="1053.0589,-195.6517 1052.2264,-185.0896 1046.2906,-193.8656 1053.0589,-195.6517"/>
</g>
<!-- 18 -->
<g id="node19" class="node">
<title>18</title>
<path fill="none" stroke="#56d89a" stroke-width="2" d="M1203.5,-329C1203.5,-329 1114.5,-329 1114.5,-329 1108.5,-329 1102.5,-323 1102.5,-317 1102.5,-317 1102.5,-305 1102.5,-305 1102.5,-299 1108.5,-293 1114.5,-293 1114.5,-293 1203.5,-293 1203.5,-293 1209.5,-293 1215.5,-299 1215.5,-305 1215.5,-305 1215.5,-317 1215.5,-317 1215.5,-323 1209.5,-329 1203.5,-329"/>
<text text-anchor="middle" x="1159" y="-308.5" font-family="sans" font-size="10.00" fill="#000000">methylDacker_CHH</text>
</g>
<!-- 18&#45;&gt;11 -->
<g id="edge23" class="edge">
<title>18&#45;&gt;11</title>
<path fill="none" stroke="#c0c0c0" stroke-width="2" d="M1159.5047,-292.8314C1159.7186,-285.131 1159.9729,-275.9743 1160.2106,-267.4166"/>
<polygon fill="#c0c0c0" stroke="#c0c0c0" stroke-width="2" points="1163.7094,-267.5066 1160.4885,-257.4133 1156.7121,-267.3122 1163.7094,-267.5066"/>
</g>
<!-- 19&#45;&gt;12 -->
<g id="edge24" class="edge">
<title>19&#45;&gt;12</title>
<path fill="none" stroke="#c0c0c0" stroke-width="2" d="M840.13,-148.9656C825.5132,-139.1552 807.2479,-126.8961 791.4748,-116.3096"/>
<polygon fill="#c0c0c0" stroke="#c0c0c0" stroke-width="2" points="793.261,-113.2933 783.0073,-110.6265 789.36,-119.1055 793.261,-113.2933"/>
</g>
<!-- 19&#45;&gt;13 -->
<g id="edge25" class="edge">
<title>19&#45;&gt;13</title>
<path fill="none" stroke="#c0c0c0" stroke-width="2" d="M867,-148.9656C867,-140.5178 867,-130.2542 867,-120.8064"/>
<polygon fill="#c0c0c0" stroke="#c0c0c0" stroke-width="2" points="870.5001,-120.6265 867,-110.6265 863.5001,-120.6265 870.5001,-120.6265"/>
</g>
<!-- 19&#45;&gt;14 -->
<g id="edge26" class="edge">
<title>19&#45;&gt;14</title>
<path fill="none" stroke="#c0c0c0" stroke-width="2" d="M893.3859,-148.9656C907.7393,-139.1552 925.6755,-126.8961 941.1644,-116.3096"/>
<polygon fill="#c0c0c0" stroke="#c0c0c0" stroke-width="2" points="943.1984,-119.1589 949.4793,-110.6265 939.2485,-113.3798 943.1984,-119.1589"/>
</g>
<!-- 20 -->
<g id="node21" class="node">
<title>20</title>
<path fill="none" stroke="#5663d8" stroke-width="2" d="M984.5,-401C984.5,-401 905.5,-401 905.5,-401 899.5,-401 893.5,-395 893.5,-389 893.5,-389 893.5,-377 893.5,-377 893.5,-371 899.5,-365 905.5,-365 905.5,-365 984.5,-365 984.5,-365 990.5,-365 996.5,-371 996.5,-377 996.5,-377 996.5,-389 996.5,-389 996.5,-395 990.5,-401 984.5,-401"/>
<text text-anchor="middle" x="945" y="-380.5" font-family="sans" font-size="10.00" fill="#000000">sort_index_dedup</text>
</g>
<!-- 20&#45;&gt;16 -->
<g id="edge27" class="edge">
<title>20&#45;&gt;16</title>
<path fill="none" stroke="#c0c0c0" stroke-width="2" d="M926.3267,-364.8314C917.4751,-356.219 906.7514,-345.7851 897.1105,-336.4048"/>
<polygon fill="#c0c0c0" stroke="#c0c0c0" stroke-width="2" points="899.2754,-333.6279 889.6674,-329.1628 894.3939,-338.645 899.2754,-333.6279"/>
</g>
<!-- 20&#45;&gt;17 -->
<g id="edge28" class="edge">
<title>20&#45;&gt;17</title>
<path fill="none" stroke="#c0c0c0" stroke-width="2" d="M963.6733,-364.8314C972.5249,-356.219 983.2486,-345.7851 992.8895,-336.4048"/>
<polygon fill="#c0c0c0" stroke="#c0c0c0" stroke-width="2" points="995.6061,-338.645 1000.3326,-329.1628 990.7246,-333.6279 995.6061,-338.645"/>
</g>
<!-- 20&#45;&gt;18 -->
<g id="edge29" class="edge">
<title>20&#45;&gt;18</title>
<path fill="none" stroke="#c0c0c0" stroke-width="2" d="M996.5307,-365.6626C1026.3444,-355.6318 1064.0997,-342.9291 1095.7093,-332.2941"/>
<polygon fill="#c0c0c0" stroke="#c0c0c0" stroke-width="2" points="1096.9444,-335.5714 1105.3063,-329.0652 1094.7122,-328.9368 1096.9444,-335.5714"/>
</g>
<!-- 21 -->
<g id="node22" class="node">
<title>21</title>
<path fill="none" stroke="#c6d856" stroke-width="2" d="M945.5,-473C945.5,-473 836.5,-473 836.5,-473 830.5,-473 824.5,-467 824.5,-461 824.5,-461 824.5,-449 824.5,-449 824.5,-443 830.5,-437 836.5,-437 836.5,-437 945.5,-437 945.5,-437 951.5,-437 957.5,-443 957.5,-449 957.5,-449 957.5,-461 957.5,-461 957.5,-467 951.5,-473 945.5,-473"/>
<text text-anchor="middle" x="891" y="-452.5" font-family="sans" font-size="10.00" fill="#000000">dedup_picard_bwameth</text>
</g>
<!-- 21&#45;&gt;20 -->
<g id="edge31" class="edge">
<title>21&#45;&gt;20</title>
<path fill="none" stroke="#c0c0c0" stroke-width="2" d="M904.6265,-436.8314C910.846,-428.5386 918.3322,-418.557 925.16,-409.4533"/>
<polygon fill="#c0c0c0" stroke="#c0c0c0" stroke-width="2" points="927.99,-411.5133 931.19,-401.4133 922.39,-407.3133 927.99,-411.5133"/>
</g>
<!-- 22&#45;&gt;21 -->
<g id="edge32" class="edge">
<title>22&#45;&gt;21</title>
<path fill="none" stroke="#c0c0c0" stroke-width="2" d="M846.8882,-508.8314C853.753,-500.454 862.0301,-490.3531 869.5511,-481.1749"/>
<polygon fill="#c0c0c0" stroke="#c0c0c0" stroke-width="2" points="872.2803,-483.3665 875.9114,-473.4133 866.8659,-478.9297 872.2803,-483.3665"/>
</g>
</g>
</svg>
